PathFileType	4	(X/Y/Z)	C:/Users/Carlo/Dropbox/Carlos/SARAH/CongressoMarcha2025/WorkshopOpenSim/C3D/Caso01/Cal 01.c3d.trc
DataRate	CameraRate	NumFrames	NumMarkers	Units	OrigDataRate	OrigDataStartFrame	OrigNumFrames
100.000000	100.000000	4	70	mm	100.000000	44	178
Frame#	Time	LASI			RASI			LPSI			RPSI			LTHI			LKNE			LTIB			LANK			LHEE			LTOE			RTHI			RKNE			RTIB			RANK			RHEE			RTOE			PELO			PELA			PELL			PELP			LFEO			LFEA			LFEL			LFEP			LTIO			LTIA			LTIL			LTIP			LFOO			LFOA			LFOL			LFOP			LTOO			LTOA			LTOL			LTOP			RFEO			RFEA			RFEL			RFEP			RTIO			RTIA			RTIL			RTIP			RFOO			RFOA			RFOL			RFOP			RTOO			RTOA			RTOL			RTOP			LHipAngles			LKneeAngles			LAbsAnkleAngle			LAnkleAngles			RHipAngles			RKneeAngles			RAnkleAngles			RAbsAnkleAngle			LPelvisAngles			RPelvisAngles			LFootProgressAngles			RFootProgressAngles			LHJC			RHJC			LKJC			RKJC			LAJC			RAJC			
		X1	Y1	Z1	X2	Y2	Z2	X3	Y3	Z3	X4	Y4	Z4	X5	Y5	Z5	X6	Y6	Z6	X7	Y7	Z7	X8	Y8	Z8	X9	Y9	Z9	X10	Y10	Z10	X11	Y11	Z11	X12	Y12	Z12	X13	Y13	Z13	X14	Y14	Z14	X15	Y15	Z15	X16	Y16	Z16	X17	Y17	Z17	X18	Y18	Z18	X19	Y19	Z19	X20	Y20	Z20	X21	Y21	Z21	X22	Y22	Z22	X23	Y23	Z23	X24	Y24	Z24	X25	Y25	Z25	X26	Y26	Z26	X27	Y27	Z27	X28	Y28	Z28	X29	Y29	Z29	X30	Y30	Z30	X31	Y31	Z31	X32	Y32	Z32	X33	Y33	Z33	X34	Y34	Z34	X35	Y35	Z35	X36	Y36	Z36	X37	Y37	Z37	X38	Y38	Z38	X39	Y39	Z39	X40	Y40	Z40	X41	Y41	Z41	X42	Y42	Z42	X43	Y43	Z43	X44	Y44	Z44	X45	Y45	Z45	X46	Y46	Z46	X47	Y47	Z47	X48	Y48	Z48	X49	Y49	Z49	X50	Y50	Z50	X51	Y51	Z51	X52	Y52	Z52	X53	Y53	Z53	X54	Y54	Z54	X55	Y55	Z55	X56	Y56	Z56	X57	Y57	Z57	X58	Y58	Z58	X59	Y59	Z59	X60	Y60	Z60	X61	Y61	Z61	X62	Y62	Z62	X63	Y63	Z63	X64	Y64	Z64	X65	Y65	Z65	X66	Y66	Z66	X67	Y67	Z67	X68	Y68	Z68	X69	Y69	Z69	X70	Y70	Z70	

45	0.44	56.03816986083987	1046.869750976563	-313.4625549316407	75.10108184814456	1056.992919921875	-526.1965332031252	250.5412445068361	1063.512817382813	-342.3326416015626	265.2642822265626	1064.544067382813	-453.5102233886721	118.6254348754883	749.5457153320315	-217.9318695068361	124.1428375244141	539.0679931640627	-253.0695648193361	156.4775543212891	302.6406250000001	-219.9880218505861	175.4643249511719	100.0211944580079	-223.6353149414064	238.3845672607423	56.10269927978518	-265.5736694335939	12.82048511505128	63.03941726684573	-247.7993164062501	129.7001190185547	816.9657592773442	-613.262390136719	118.3158645629883	537.8572998046877	-576.3006591796877	150.1979217529297	383.532196044922	-605.1424560546877	179.8405914306641	96.41168212890631	-599.119323730469	246.2487335205079	58.80078887939456	-553.6995849609377	21.74995994567872	62.71401214599612	-576.9417114257815	118.9544219970704	958.1624145507817	-419.5078735351565	-9.164352416992191	949.9910278320317	-431.3773498535159	107.4604187011719	952.0586547851567	-291.2397766113282	110.2628402709962	1086.684936523438	-414.170837402344	124.2725143432618	532.973571777344	-310.7483520507814	-300.2319335937501	521.8081054687502	-310.5230102539064	123.3230514526368	577.5943603515627	111.5510864257813	113.1452026367188	955.1264648437505	-355.3786621093751	170.8878479003907	95.20498657226565	-268.6476440429689	-246.4627685546876	55.255729675293	-221.9404296875001	213.3185577392579	139.8583221435547	148.6828613281251	126.4227752685547	512.7803344726565	-308.8063354492189	16.50609779357911	87.30673980712893	-240.7137451171876	21.33446693420411	305.3516235351564	-264.534881591797	34.35676574707033	110.6640014648438	-23.29681396484376	235.1207580566407	80.58375549316409	-257.9404907226564	-56.3654594421387	89.54774475097659	-234.9714965820314	-54.75599288940433	162.2293701171876	-242.9118804931642	-50.41522598266604	97.33349609375006	-162.4991760253907	16.50609970092774	87.30673980712893	-240.7137603759767	114.0496215820313	533.1973266601565	-519.6518554687502	-314.2585449218751	546.5408935546877	-550.810241699219	81.8920822143555	498.071716308594	-92.65203857421878	124.7636337280274	961.198364257813	-483.6370239257815	169.812728881836	91.63641357421878	-553.965270996094	-243.1220550537111	46.98170471191408	-650.3927001953127	77.86074066162112	47.84883499145509	-139.9182739257813	116.5480270385743	513.4135742187502	-521.1892700195315	16.77641487121583	81.67478942871097	-585.5466918945315	18.15417289733887	299.1099243164064	-562.2458496093752	-6.015319824218754	58.64314270019534	-369.2761230468751	234.2655029296876	77.8837814331055	-563.0302734375002	-55.71994781494143	82.9384689331055	-593.0521240234377	-55.26063537597659	155.4168395996094	-585.2851562500002	-63.31719970703128	75.26125335693362	-520.9619750976565	16.77641296386719	81.67474365234378	-585.5466308593752	-8.585801124572757	-5.274276256561281	1.581645488739015	0.54877644777298	-5.875792503356935	4.548010826110842	0	0	7.347521305084232	2.385860606302083e-13	1.10604214668274	7.348902702331547	-1.949076890945435	0.8744603395462041	5.49104166030884	-0.2793054282665254	-8.262623786926273	8.608350753784183	1.656492461645301e-13	6.471621036529545	7.719714641571048	0	0	7.670217990875248	-2.372489690780641	5.286883831024172	3.868836402893068	2.372489690780641	-5.286883831024172	3.868836402893068	-6.252642154693607	-4.503452301025392	-91.7614440917969	-6.149291038513187	-5.909824371337892	-90.99861907958987	113.1452178955079	955.1264648437505	-355.3786621093751	124.7636260986329	961.1983032226567	-483.6370544433596	124.2725143432618	532.973571777344	-310.7483520507814	114.0496215820313	533.1972656250002	-519.6519165039065	170.8878479003907	95.20498657226565	-268.6476440429689	169.8127441406251	91.63641357421878	-553.965270996094	
46	0.45	56.19765090942386	1046.943969726563	-313.3646240234376	75.09013366699222	1057.074829101563	-526.2090454101565	250.6417083740236	1063.478515625	-342.427459716797	265.2525634765626	1064.486206054688	-453.6294555664065	118.8068771362305	749.632751464844	-217.8670959472657	124.2843780517579	539.175720214844	-253.0195617675782	156.5805053710938	302.7191467285157	-219.9765930175782	175.5926818847657	100.1433105468751	-223.6130828857423	238.3939819335939	56.08275222778323	-265.5713806152345	12.87322044372559	63.10936355590823	-247.7956390380861	129.6378173828126	817.033569335938	-613.285339355469	118.4949798583985	537.7247314453127	-576.3122558593752	150.2255249023438	383.638641357422	-605.1909179687502	179.8989562988282	96.47631072998053	-599.1160888671877	246.2544860839845	58.78593063354495	-553.694763183594	21.8105697631836	62.7800102233887	-576.971130371094	118.9713287353516	958.207641601563	-419.5181274414065	-9.162673950195316	950.1157836914067	-431.2767333984377	107.5851211547852	952.1019897460942	-291.2404785156251	110.3633575439454	1086.735107421875	-414.1646423339846	124.3636703491212	533.0715942382815	-310.6973876953126	-300.0940246582032	521.9248046875002	-310.1011962890626	123.7832183837891	577.758483886719	111.5486145019532	113.2160644531251	955.1708984375005	-355.3840942382814	171.0249176025391	95.33021545410159	-268.6266479492189	-246.3043670654298	55.32596588134768	-222.0006561279298	213.3722076416017	139.9520721435547	148.6905517578126	126.5161590576172	512.878601074219	-308.7566833496095	16.64050865173341	87.49378204345706	-240.6900787353517	21.55717468261719	305.537567138672	-264.5034484863282	34.50479125976564	110.8359146118165	-23.27262878417969	235.2521057128907	80.68244934082034	-257.9212036132814	-56.23001861572268	89.76422882080081	-234.9463653564454	-54.59111404418948	162.4454956054688	-242.8841705322267	-50.27526473999026	97.54497528076178	-162.473861694336	16.64051818847657	87.493766784668	-240.6900634765626	114.2908477783204	533.0631103515627	-519.6589965820315	-314.2308349609376	546.0911254882815	-550.3867797851565	82.58876037597659	497.9110107421877	-92.45404052734378	124.7266006469727	961.244506835938	-483.6520996093752	169.9748687744141	91.71527862548831	-553.9376220703127	-242.9605560302736	47.0267906188965	-649.353942871094	79.02221679687503	48.0811576843262	-139.8836364746094	116.7869415283204	513.2791137695315	-521.1955566406252	16.93999862670899	81.80461120605472	-585.5419921875002	18.39978981018067	299.2462463378907	-562.3067626953127	-5.897567749023439	58.84751129150393	-369.2683715820314	234.4237518310548	77.93442535400393	-562.9874267578127	-55.55458068847659	83.09468841552737	-593.0601806640627	-55.06797790527347	155.5752258300782	-585.315124511719	-63.16709136962893	75.44232940673831	-520.9689941406252	16.94001007080079	81.80462646484378	-585.5419921875002	-8.596396446228031	-5.276249885559084	1.547452092170716	0.556630074977875	-5.81381130218506	4.551896095275881	0	0	7.376946449279789	-3.570820397182097e-13	1.091431856155396	7.378293991088871	-1.950075149536134	0.887654304504395	5.413853168487551	-0.2674061655998231	-8.192066192626957	8.564415931701664	-1.032018098908426e-13	6.32863283157349	7.731038093566898	0	0	7.683629035949711	-2.379823923110963	5.23738479614258	3.831588029861452	2.379823923110963	-5.23738479614258	3.831588029861452	-6.250593662261966	-4.504608154296877	-91.78459930419925	-6.132022380828861	-5.919867515563967	-91.0195007324219	113.216049194336	955.1708374023442	-355.3840942382814	124.7266159057618	961.244506835938	-483.6521301269534	124.3636779785157	533.0715942382815	-310.6974182128907	114.2908477783204	533.0630493164065	-519.6589965820315	171.0249176025391	95.33021545410159	-268.6266174316407	169.9748840332032	91.71528625488284	-553.9376220703127	
47	0.46	56.34553909301761	1047.047119140625	-313.2803344726564	74.90290832519534	1057.084594726563	-526.1494750976565	250.7440643310548	1063.479125976563	-342.5267028808595	265.2949218750001	1064.483154296875	-453.7212219238284	119.0444946289063	749.7376708984377	-217.8377380371095	124.4128494262696	539.3266601562502	-252.9791107177736	156.7093200683594	302.8238525390626	-219.9667205810548	175.7348175048829	100.2527236938477	-223.5903167724611	238.3937530517579	56.08158493041995	-265.583221435547	12.91438484191895	63.16463470458987	-247.8170623779298	129.5866241455079	817.0845336914067	-613.3001708984377	118.2985839843751	538.0657348632815	-576.3638305664065	150.286605834961	383.7108459472657	-605.222351074219	179.9596252441407	96.54521179199224	-599.1341552734377	246.292938232422	58.79008483886722	-553.6767578125002	21.89337921142579	62.83904266357425	-577.002380371094	118.920753479004	958.246459960938	-419.4925537109377	-9.23447418212891	950.1926269531255	-431.0445556640627	107.7360763549805	952.1967773437505	-291.194549560547	110.3641357421876	1086.778930664063	-414.1777648925784	124.3922195434571	533.2180786132815	-310.6565246582032	-299.9870605468751	522.169860839844	-309.3346557617189	124.5431747436524	577.9290771484377	111.5075073242188	113.2662200927735	955.2375488281255	-355.3482360839845	171.1274871826172	95.43689727783206	-268.5995483398439	-246.2028045654298	55.40040588378909	-221.5960998535157	213.8463745117189	140.0888977050782	148.7229614257813	126.5478973388672	513.0252685546877	-308.7166442871095	16.74045372009278	87.64177703857425	-240.6659393310548	21.71160888671876	305.6815795898439	-264.5043334960939	34.60505294799806	111.0045928955079	-23.25071716308594	235.3508148193361	80.77442169189456	-257.8907775878907	-56.12965393066409	89.93087005615237	-234.924285888672	-54.47265243530276	162.6108093261719	-242.8703918457032	-50.17476272583011	97.71844482421881	-162.4525604248047	16.74045562744141	87.64179992675784	-240.6659240722657	114.0250320434571	533.3942871093752	-519.7165527343752	-314.1452636718751	546.5843505859377	-550.930603027344	81.82278442382815	498.193786621094	-92.86526489257815	124.575294494629	961.255249023438	-483.6368713378909	169.8908691406251	91.76800537109378	-553.9893798828127	-243.020721435547	47.04877853393556	-650.8144531250002	77.54767608642581	47.95506286621095	-139.9555664062501	116.5276184082032	513.6109008789065	-521.2518310546877	16.86182022094727	81.90293884277347	-585.6362915039065	18.35859680175782	299.3328247070314	-562.2940673828127	-6.033428192138675	58.84426879882815	-369.3795776367189	234.3392333984376	77.97893524169925	-563.030212402344	-55.63065719604495	83.21096038818362	-593.1716308593752	-55.13165664672854	155.6875915527344	-585.3909301757815	-63.2624435424805	75.52475738525393	-521.0860595703127	16.86181259155274	81.90288543701175	-585.6362304687502	-8.576748847961429	-5.282813072204592	1.542390704154969	0.5528466105461123	-5.765318393707277	4.564500808715822	0	0	7.400839328765873	-1.741699368279851e-13	1.141437888145447	7.402292728424076	-1.989615082740785	0.7293424606323244	5.406928062438967	-0.2638168036937715	-8.305567741394047	8.600233078002933	-1.920663877507529e-13	6.495983600616459	7.765600681304935	0	0	7.71542596817017	-2.362592697143556	5.145058155059816	3.80865263938904	2.362592697143556	-5.145058155059816	3.80865263938904	-6.257158279418949	-4.502977371215822	-91.79925537109378	-6.160514831542972	-5.933443546295168	-91.03370666503909	113.266212463379	955.2376098632817	-355.3482360839845	124.575294494629	961.255249023438	-483.6368408203127	124.3922271728516	533.2180786132815	-310.6565551757814	114.0250320434571	533.3942871093752	-519.7165527343752	171.1275024414063	95.43689727783206	-268.5995483398439	169.8908691406251	91.76800537109378	-553.9893798828127	
48	0.47	56.37572860717776	1047.096801757813	-313.2744140625001	75.17832946777347	1057.084228515625	-526.1224365234377	250.8424072265626	1063.503540039063	-342.6323547363282	265.2842407226564	1064.486572265625	-453.7998352050784	119.1245193481446	749.747009277344	-217.8202667236329	124.3936233520508	539.3249511718752	-252.967010498047	156.7414550781251	302.8445129394532	-219.9603118896486	175.6958618164063	100.2373123168946	-223.6337738037111	238.4575958251954	56.15178298950198	-265.5823364257814	12.86004066467286	63.19942855834964	-247.8382263183595	129.5441894531251	817.0637817382817	-613.2678222656252	118.2831039428712	538.0298461914065	-576.3422851562502	150.2898864746094	383.6545410156251	-605.2031860351565	180.026840209961	96.51483917236334	-599.0853271484377	246.2850189208986	58.80633544921878	-553.6821289062502	21.92432403564454	62.83029556274417	-577.0027465820315	119.061882019043	958.2647094726567	-419.3939208984377	-9.080986022949222	950.2238159179692	-431.0910949707034	107.7293090820313	952.2451171875005	-291.1074523925782	110.5147857666016	1086.799438476563	-414.1177368164065	124.3336639404297	533.2268066406252	-310.6455078125001	-300.0613403320314	522.3336181640627	-309.0526428222657	124.7725296020508	577.8630371093752	111.5389709472657	113.3333892822266	955.2709960937505	-355.2554626464845	171.0072326660157	95.419303894043	-268.6343688964845	-246.2666015625001	55.5165939331055	-220.8862609863282	214.481414794922	140.0931701660157	148.6230773925782	126.4864349365235	513.033386230469	-308.7077636718751	16.61784553527833	87.59900665283206	-240.7208099365236	21.55277252197266	305.6374511718751	-264.5793457031251	34.44905853271486	110.9858093261719	-23.30543518066407	235.2317352294923	80.76954650878909	-257.9156494140626	-56.25344848632815	89.87549591064456	-234.9892120361329	-54.60846710205081	162.5549621582032	-242.9420776367189	-50.30974578857425	97.67111206054693	-162.5174255371094	16.61785125732423	87.59900665283206	-240.7207946777345	114.1129989624024	533.3469848632815	-519.6882324218752	-314.1717834472657	546.6047363281252	-550.1169433593752	82.68583679199222	498.0555419921877	-92.72644042968753	124.790382385254	961.2585449218755	-483.5323791503909	170.0190429687501	91.74661254882815	-553.9260864257815	-242.9893493652345	46.92342376708986	-650.1860351562502	78.24012756347659	48.01836776733401	-139.7817687988282	116.6175155639649	513.5638427734377	-521.2220458984377	16.99053192138673	81.86092376708987	-585.5690917968752	18.46986198425294	299.2969665527345	-562.2828369140627	-5.900968551635744	58.85605621337893	-369.3062133789064	234.468475341797	77.9604187011719	-562.9638671875002	-55.50211715698245	83.16109466552737	-593.1041259765627	-55.00897979736331	155.6397705078126	-585.3420410156252	-63.13259887695315	75.49279785156253	-521.016540527344	16.99052810668946	81.86090087890628	-585.5690917968752	-8.551314353942875	-5.384822368621828	1.548020482063294	0.5447289943695071	-5.830595016479494	4.573637485504152	0	0	7.384102344512943	-3.499447097116833e-13	1.253155946731568	7.38588380813599	-2.008937358856202	0.9008252024650578	5.424079418182375	-0.2361715137958528	-8.329729080200199	8.623979568481449	-2.704529308839022e-13	6.420030593872074	7.764298439025882	0	0	7.715305805206302	-2.345419645309449	5.209844112396242	3.804366588592531	2.345419645309449	-5.209844112396242	3.804366588592531	-6.262422084808353	-4.495089054107668	-91.78933715820315	-6.145682334899906	-5.933211326599123	-91.02750396728518	113.3333969116212	955.2709350585942	-355.2554626464845	124.7903671264649	961.2584838867192	-483.5323791503909	124.3336639404297	533.2268066406252	-310.645477294922	114.1129989624024	533.3469848632815	-519.6882324218752	171.0072479248047	95.419303894043	-268.6343688964845	170.0190429687501	91.74661254882815	-553.9260253906252	
